<?xml version="1.0" encoding="UTF-8" standalone="no"?> <svg xmlns="http://www.w3.org/2000/svg" viewBox="0 0 512 512"><title>Swords</title><g id="Swords"><g id="C-5" data-name="C"><path d="M153.39,288.24,225.18,360a7.22,7.22,0,0,0,10.18,0h0a7.23,7.23,0,0,0,0-10.19l-71.79-71.79a7.22,7.22,0,0,0-10.18,0h0A7.22,7.22,0,0,0,153.39,288.24Z" style="fill:#5b7dbb"/><rect x="144.15" y="313.09" width="32.76" height="78.74" transform="translate(24.82 715.21) rotate(-135)" style="fill:#bfa1db"/><path d="M144.27,392.59,120.4,368.72l56.39-56.38,23.87,23.87Zm-22.45-23.87,22.45,22.46,55-55-22.46-22.46Z" style="fill:#b3a3b0"/><rect x="89.48" y="378.5" width="75.69" height="14.4" rx="6.82" transform="translate(-55.37 748.46) rotate(-135)" style="fill:#5b7dbb"/><path d="M79.88,248.5l18.6,26.59,17-24.4.52-.29a140.7,140.7,0,1,0,281.4,0l17,24.39L433,248.2A177,177,0,1,1,79,248.2" style="fill:#e77b73"/><polyline points="291.55 328.68 150.77 187.9 119.15 117.69 188.91 149.75 329.69 290.53" style="fill:#bdcbe4"/><path d="M358.61,285.8l-71.79,71.8a7.22,7.22,0,0,1-10.18,0h0a7.22,7.22,0,0,1,0-10.18l71.79-71.8a7.22,7.22,0,0,1,10.18,0h0A7.22,7.22,0,0,1,358.61,285.8Z" style="fill:#5b7dbb"/><rect x="335.09" y="310.66" width="32.76" height="78.74" transform="translate(-144.56 351.05) rotate(-45)" style="fill:#bfa1db"/><path d="M367.73,390.16l-56.39-56.39,23.87-23.87,56.39,56.39Zm-55-56.39,55,55,22.45-22.45-55-55Z" style="fill:#b3a3b0"/><rect x="346.83" y="376.06" width="75.69" height="14.4" rx="6.82" transform="translate(-158.34 384.26) rotate(-45)" style="fill:#5b7dbb"/><polyline points="220.45 331.11 361.23 190.34 392.85 120.13 323.08 152.19 182.31 292.97" style="fill:#fffff8"/><path d="M255.79,295,295,255.78,308,268.84l-37.88,37.88S253.11,295,255.79,295Z" style="fill:#5b7dbb"/></g><g id="line-5" data-name="line"><path d="M230.27,365.14a10.16,10.16,0,0,1-7.21-3l-71.79-71.8a10.21,10.21,0,0,1,0-14.42,10.2,10.2,0,0,1,14.42,0l71.8,71.79a10.2,10.2,0,0,1-7.22,17.41ZM158.48,279a4.21,4.21,0,0,0-3,7.17h0l71.79,71.79a4.2,4.2,0,1,0,5.94-5.93l-71.79-71.8A4.2,4.2,0,0,0,158.48,279Z" style="fill:#204184"/><polyline points="173.35 362.81 199.95 336.21 176.79 313.04 148.98 340.86" style="fill:none"/><path d="M149,417.72a9.82,9.82,0,0,1-6.95-2.87L98.18,371h0a9.83,9.83,0,0,1,0-13.89l.53-.54a9.86,9.86,0,0,1,13.89,0l43.88,43.88a9.83,9.83,0,0,1,0,13.89l-.54.54A9.82,9.82,0,0,1,149,417.72Zm-46.58-51L146.3,410.6a3.82,3.82,0,0,0,5.4,0l.54-.54a3.84,3.84,0,0,0,0-5.4l-43.88-43.87a3.92,3.92,0,0,0-5.4,0l-.54.54a3.82,3.82,0,0,0,0,5.4Z" style="fill:#204184"/><path d="M190.38,347.37a3,3,0,0,1-2.12-.88l-21.85-21.85a3,3,0,0,1,4.24-4.24l21.85,21.85a3,3,0,0,1,0,4.24A3,3,0,0,1,190.38,347.37Z" style="fill:#204184"/><path d="M181,357.31a3,3,0,0,1-2.13-.88L157,334.58a3,3,0,0,1,4.25-4.24l21.85,21.85a3,3,0,0,1-2.12,5.12Z" style="fill:#204184"/><path d="M364.55,388.05A177,177,0,0,1,79,248.2" style="fill:none"/><path d="M365.35,339.81a140.16,140.16,0,0,0,32.06-89.41l17,24.39L433,248.2a176.41,176.41,0,0,1-40.34,112.5q-1.68,2-3.41,4" style="fill:none"/><path d="M79.88,248.5l18.6,26.59,17-24.4.52-.29A140.64,140.64,0,0,0,340.36,363.55" style="fill:none"/><path d="M331.35,295.19a3,3,0,0,1-2.12-.88L293.89,259a3,3,0,0,1,4.24-4.24l35.34,35.34a3,3,0,0,1-2.12,5.12Z" style="fill:#204184"/><path d="M219.21,259.34a3,3,0,0,1-2.12-.88l-66.78-66.78a3,3,0,0,1-.62-.89l-31.61-70.21a3,3,0,0,1,4-4l69.77,32.07a2.84,2.84,0,0,1,.86.6l65.88,65.88a3,3,0,0,1-4.24,4.24l-65.5-65.5-62-28.49,28.11,62.4,66.39,66.4a3,3,0,0,1-2.12,5.12Z" style="fill:#204184"/><path d="M293.2,333.33a3,3,0,0,1-2.12-.87l-34.74-34.75a3,3,0,0,1,4.24-4.24l34.75,34.74a3,3,0,0,1-2.13,5.12Z" style="fill:#204184"/><path d="M281.73,362.7a10.2,10.2,0,0,1-7.22-17.41l71.8-71.79a10.2,10.2,0,0,1,14.42,14.42h0l-71.79,71.8A10.16,10.16,0,0,1,281.73,362.7Zm71.79-86.19a4.2,4.2,0,0,0-3,1.23l-71.79,71.8a4.2,4.2,0,0,0,5.94,5.94l71.79-71.8a4.2,4.2,0,0,0-3-7.17Z" style="fill:#204184"/><rect x="335.09" y="310.66" width="32.76" height="78.74" transform="translate(-144.56 351.05) rotate(-45)" style="fill:none"/><path d="M363,415.27a9.75,9.75,0,0,1-6.94-2.86l-.54-.54a9.83,9.83,0,0,1,0-13.89l43.88-43.87a9.84,9.84,0,0,1,13.89,0l.53.53a9.83,9.83,0,0,1,0,13.89h0L370,412.41A9.75,9.75,0,0,1,363,415.27Zm43.34-58a3.79,3.79,0,0,0-2.7,1.11l-43.88,43.88a3.84,3.84,0,0,0,0,5.4l.54.53a3.91,3.91,0,0,0,5.4,0l43.88-43.87a3.82,3.82,0,0,0,0-5.4l-.54-.54A3.75,3.75,0,0,0,406.34,357.24Z" style="fill:#204184"/><path d="M237.3,239.29a3,3,0,0,1-2.12-.88L119.67,122.9a3,3,0,0,1,4.25-4.24l115.5,115.5a3,3,0,0,1-2.12,5.13Z" style="fill:#204184"/><path d="M321.62,344.93a3,3,0,0,1-2.12-.88,3,3,0,0,1,0-4.24L341.35,318a3,3,0,1,1,4.24,4.24l-21.85,21.85A3,3,0,0,1,321.62,344.93Z" style="fill:#204184"/><path d="M331,354.87a3,3,0,0,1-2.12-5.12l21.85-21.85a3,3,0,0,1,4.25,4.24L333.16,354A3,3,0,0,1,331,354.87Z" style="fill:#204184"/><path d="M340.31,364.15a3,3,0,0,1-2.12-5.12L360,337.17a3,3,0,0,1,4.24,4.25l-21.85,21.85A3,3,0,0,1,340.31,364.15Z" style="fill:#204184"/><path d="M350,373.82a3,3,0,0,1-2.12-5.12l21.85-21.85a3,3,0,0,1,4.24,4.24L352.11,373A3,3,0,0,1,350,373.82Z" style="fill:#204184"/><path d="M359.69,383.52a3,3,0,0,1-2.13-5.12l21.86-21.85a3,3,0,0,1,4.24,4.24l-21.85,21.85A3,3,0,0,1,359.69,383.52Z" style="fill:#204184"/><path d="M220.45,334.11a3,3,0,0,1-2.12-5.12L358.72,188.6l28.1-62.4-62,28.49-140.4,140.4a3,3,0,1,1-4.24-4.24L321,150.07a2.88,2.88,0,0,1,.87-.6l69.76-32.07a3,3,0,0,1,3.37.6,3,3,0,0,1,.62,3.36L364,191.57a3,3,0,0,1-.62.89L222.58,333.24A3,3,0,0,1,220.45,334.11Z" style="fill:#204184"/><path d="M224.37,292.05a3,3,0,0,1-2.12-5.12l17.5-17.5a3,3,0,0,1,4.24,4.24l-17.49,17.5A3,3,0,0,1,224.37,292.05Z" style="fill:#204184"/><path d="M257.68,258.74a3,3,0,0,1-2.12-5.12L388.08,121.1a3,3,0,0,1,4.25,4.24L259.8,257.86A3,3,0,0,1,257.68,258.74Z" style="fill:#204184"/><path d="M256,124.63a3,3,0,0,1-3-3V86.77a3,3,0,1,1,6,0v34.86A3,3,0,0,1,256,124.63Z" style="fill:#204184"/><path d="M263.59,107.2H248.41a3,3,0,0,1,0-6h15.18a3,3,0,0,1,0,6Z" style="fill:#204184"/><path d="M412,221.85a3,3,0,0,1-3-3V184a3,3,0,0,1,6,0v34.86A3,3,0,0,1,412,221.85Z" style="fill:#204184"/><path d="M419.55,204.42H404.37a3,3,0,0,1,0-6h15.18a3,3,0,0,1,0,6Z" style="fill:#204184"/><path d="M99,221.18a3,3,0,0,1-3-3V183.32a3,3,0,0,1,6,0v34.86A3,3,0,0,1,99,221.18Z" style="fill:#204184"/><path d="M106.58,203.75H91.4a3,3,0,1,1,0-6h15.18a3,3,0,0,1,0,6Z" style="fill:#204184"/></g></g></svg>