<?xml version="1.0" encoding="utf-8"?>
<!-- Svg Vector Icons : http://www.onlinewebfonts.com/icon -->
<!DOCTYPE svg PUBLIC "-//W3C//DTD SVG 1.1//EN" "http://www.w3.org/Graphics/SVG/1.1/DTD/svg11.dtd">
<svg version="1.1" xmlns="http://www.w3.org/2000/svg" xmlns:xlink="http://www.w3.org/1999/xlink" fill="#ffffff" x="0px" y="0px" viewBox="0 0 1000 1000" enable-background="new 0 0 1000 1000" xml:space="preserve">
<metadata> Svg Vector Icons : http://www.onlinewebfonts.com/icon </metadata>
<g><path d="M867.8,465.3c-20.9-7.3-50.2-22.8-50.2-44.6c0-5.6,0.7-17.3,23.7-44.9c22.2-26.5,36.4-76.7,39.4-104.7c5.5-52.7-19.6-148.6-122.3-148.6c-1.7,0-3.4,0-5,0.1c36,51.9,44.4,116.7,39.8,160c-4.2,40-23.9,115.7-61.2,160.1c-18.4,22.1-22,32.2-22.6,34.4c2.7,4.4,15.5,15.3,41.4,24.5c40.1,14.1,84.8,40.3,119.6,70.1c21.2,18.2,45,43.2,58.3,72.1c47.3-16.7,61.2-41.4,61.2-65.7C990,535.7,919.9,483.6,867.8,465.3z"/><path d="M738.1,537.5c-27.8-9.8-66.8-30.3-66.8-59.4c0-7.6,1-23.2,31.6-59.9c29.6-35.2,48.6-102.2,52.5-139.6c7.4-70.2-26.2-198.1-163-198.1c-7.6,0-14.9,0.4-21.9,1.2c0.6,0.7,1.2,1.3,1.8,2c58.8,65.3,72.4,157.5,66.2,216.5c-4.9,47-29.4,141.5-74.3,195c-22.6,27-30.7,43.8-30.7,50.4c0,5.3,16.7,23.8,58.2,38.3c49.1,17.3,103.9,49.4,146.5,86c30.5,26.1,65.6,64,78,106.9C881.9,754.5,901,721,901,688C901.1,631.3,807.6,561.9,738.1,537.5z"/><path d="M579,619.8c-34.7-12.2-83.6-37.9-83.6-74.3c0-9.5,1.2-29,39.6-74.8c36.9-44,60.7-127.8,65.6-174.5c9.2-87.8-32.7-247.7-203.8-247.7c-171,0-214,159.9-204.8,247.7c4.9,46.7,27.7,130.9,64.6,175c38.3,45.8,39.7,65.1,39.7,74.5c0,36.4-48.6,61.9-83.3,74.1C126.3,650.4,10,737.2,10,808c0,70.8,71.6,143.5,386.9,143.5c315.2,0,385.8-72.8,385.8-143.6C782.6,737.1,665.8,650.3,579,619.8z"/></g>
</svg>